<svg width="17" height="17" viewBox="0 0 17 17" fill="none" xmlns="http://www.w3.org/2000/svg">
<path d="M15.6518 4.98751C15.2432 4.01423 14.6486 3.12959 13.9014 2.38289C13.1564 1.63489 12.2714 1.04019 11.2967 0.632542C10.2983 0.212915 9.22543 -0.00218539 8.142 1.67389e-05H8.10558C7.0036 0.00546954 5.93806 0.223582 4.93445 0.652535C3.96812 1.06436 3.09146 1.66012 2.35346 2.40652C1.61347 3.15154 1.02576 4.03309 0.623094 5.00205C0.205101 6.00966 -0.00669801 7.09052 0.000161437 8.18103C0.00562576 9.44245 0.307985 10.6948 0.872632 11.8144V14.5772C0.872632 15.0388 1.24785 15.4133 1.70867 15.4133H4.47362C5.60087 15.9809 6.84479 16.2795 8.1074 16.2857H8.14565C9.23487 16.2857 10.2895 16.0749 11.284 15.6623C12.2538 15.2595 13.1354 14.6717 13.8795 13.9319C14.63 13.1885 15.2201 12.3197 15.6336 11.3509C16.0616 10.3476 16.2802 9.28068 16.2857 8.17922C16.2893 7.0723 16.0744 5.9981 15.6518 4.98751ZM4.50641 9.01531C4.02555 9.01531 3.63394 8.62453 3.63394 8.14287C3.63394 7.6612 4.02555 7.27042 4.50641 7.27042C4.98727 7.27042 5.37888 7.6612 5.37888 8.14287C5.37888 8.62453 4.98909 9.01531 4.50641 9.01531ZM8.142 9.01531C7.66114 9.01531 7.26954 8.62453 7.26954 8.14287C7.26954 7.6612 7.66114 7.27042 8.142 7.27042C8.62287 7.27042 9.01448 7.6612 9.01448 8.14287C9.01448 8.62453 8.62287 9.01531 8.142 9.01531ZM11.7776 9.01531C11.2967 9.01531 10.9051 8.62453 10.9051 8.14287C10.9051 7.6612 11.2967 7.27042 11.7776 7.27042C12.2585 7.27042 12.6501 7.6612 12.6501 8.14287C12.6501 8.62453 12.2585 9.01531 11.7776 9.01531Z" fill="white"/>
</svg>
