<svg width="27" height="26" viewBox="0 0 27 26" fill="none" xmlns="http://www.w3.org/2000/svg">
<g opacity="0.4">
<path fill-rule="evenodd" clip-rule="evenodd" d="M10.026 12.1329C9.47071 12.1329 9.03169 12.5644 9.03169 13.1101C9.03169 13.6431 9.47071 14.0873 10.026 14.0873H17.7734V20.1537C17.7734 23.263 15.2039 25.8012 12.0274 25.8012H5.739C2.57544 25.8012 0.00585938 23.2757 0.00585938 20.1663V6.0665C0.00585938 2.94448 2.58836 0.418945 5.75192 0.418945H12.0532C15.2039 0.418945 17.7734 2.94448 17.7734 6.05381V12.1329H10.026ZM22.3805 8.71918L26.0863 12.4123C26.2766 12.6027 26.3782 12.8438 26.3782 13.1103C26.3782 13.3641 26.2766 13.618 26.0863 13.7956L22.3805 17.4888C22.1901 17.6791 21.9363 17.7807 21.6951 17.7807C21.4413 17.7807 21.1875 17.6791 20.9971 17.4888C20.6164 17.108 20.6164 16.4862 20.9971 16.1054L23.0277 14.0875H17.7736V12.1331H23.0277L20.9971 10.1152C20.6164 9.73448 20.6164 9.11261 20.9971 8.73188C21.3779 8.33845 21.9997 8.33845 22.3805 8.71918Z" fill="#030229"/>
</g>
</svg>
