<svg width="32" height="26" viewBox="0 0 32 26" fill="none" xmlns="http://www.w3.org/2000/svg">
<path fill-rule="evenodd" clip-rule="evenodd" d="M30.8227 10.7842C30.6165 10.9846 30.3366 11.099 30.0421 11.099C28.9521 11.099 28.0684 11.9575 28.0684 13.002C28.0684 14.0537 28.9418 14.9079 30.0214 14.9193C30.6297 14.925 31.1467 15.3371 31.1467 15.9281V19.5981C31.1467 22.6873 28.5692 25.1927 25.3878 25.1927H20.5863C20.09 25.1927 19.6879 24.802 19.6879 24.3199V21.2293C19.6879 20.6283 19.2018 20.1561 18.5832 20.1561C17.9793 20.1561 17.4786 20.6283 17.4786 21.2293V24.3199C17.4786 24.802 17.0765 25.1927 16.5816 25.1927H6.44687C3.28022 25.1927 0.687988 22.6887 0.687988 19.5981V15.9281C0.687988 15.3371 1.20496 14.925 1.81325 14.9193C2.89433 14.9079 3.76626 14.0537 3.76626 13.002C3.76626 11.9861 2.912 11.2135 1.79263 11.2135C1.49806 11.2135 1.21822 11.099 1.01202 10.8987C0.805817 10.6984 0.687988 10.4265 0.687988 10.1404V6.43452C0.687988 3.34966 3.28611 0.825684 6.46159 0.825684H16.5816C17.0765 0.825684 17.4786 1.2163 17.4786 1.69849V5.3614C17.4786 5.94804 17.9793 6.43452 18.5832 6.43452C19.2018 6.43452 19.6879 5.94804 19.6879 5.3614V1.69849C19.6879 1.2163 20.09 0.825684 20.5863 0.825684H25.3878C28.5692 0.825684 31.1467 3.32963 31.1467 6.42021V10.0259C31.1467 10.3121 31.0289 10.5839 30.8227 10.7842ZM18.5833 17.38C19.2019 17.38 19.688 16.8935 19.688 16.3069V10.5836C19.688 9.99692 19.2019 9.51044 18.5833 9.51044C17.9794 9.51044 17.4787 9.99692 17.4787 10.5836V16.3069C17.4787 16.8935 17.9794 17.38 18.5833 17.38Z" fill="#443022"/>
</svg>
